<?xml version="1.0" encoding="utf-8"?>
<!-- Generator: Adobe Illustrator 21.0.0, SVG Export Plug-In . SVG Version: 6.00 Build 0)  -->
<svg version="1.1" id="Layer_1" xmlns="http://www.w3.org/2000/svg" xmlns:xlink="http://www.w3.org/1999/xlink" x="0px" y="0px"
	 viewBox="0 0 128 128" style="enable-background:new 0 0 128 128;" xml:space="preserve">
<g>
	<path style="fill:#F6E4C3;" d="M67.5,12.5C67.5,14.4,64,31,64,31s-3.5-16.6-3.5-18.5S62.1,9,64,9C65.9,9,67.5,10.6,67.5,12.5z"/>
</g>
<g>
	<circle style="fill:#F6E4C3;" cx="64" cy="3.5" r="3.5"/>
</g>
<g>
	<path style="fill:#F6E4C3;" d="M47.5,15.1c0.7,1.8,3.8,18.4,3.8,18.4s-9.6-14-10.3-15.8c-0.7-1.8,0.1-3.8,1.9-4.6
		C44.7,12.4,46.8,13.3,47.5,15.1z"/>
</g>
<g>
	
		<ellipse transform="matrix(0.9239 -0.3827 0.3827 0.9239 7.582852e-03 16.2487)" style="fill:#F6E4C3;" cx="40.8" cy="8.1" rx="3.5" ry="3.5"/>
</g>
<g>
	<path style="fill:#F6E4C3;" d="M30.1,25.1c1.4,1.4,10.6,15.6,10.6,15.6s-14.2-9.2-15.6-10.6s-1.4-3.6,0-4.9S28.7,23.7,30.1,25.1z"
		/>
</g>
<g>
	
		<ellipse transform="matrix(0.7071 -0.7071 0.7071 0.7071 -8.7896 21.22)" style="fill:#F6E4C3;" cx="21.2" cy="21.2" rx="3.5" ry="3.5"/>
</g>
<g>
	<path style="fill:#F6E4C3;" d="M17.8,41.1c1.8,0.7,15.8,10.3,15.8,10.3s-16.6-3.1-18.4-3.8c-1.8-0.7-2.6-2.8-1.9-4.6
		C13.9,41.2,16,40.3,17.8,41.1z"/>
</g>
<g>
	
		<ellipse transform="matrix(0.3827 -0.9239 0.9239 0.3827 -32.7348 32.7042)" style="fill:#F6E4C3;" cx="8.1" cy="40.8" rx="3.5" ry="3.5"/>
</g>
<g>
	<path style="fill:#F6E4C3;" d="M12.5,60.5C14.4,60.5,31,64,31,64s-16.6,3.5-18.5,3.5S9,65.9,9,64C9,62.1,10.6,60.5,12.5,60.5z"/>
</g>
<g>
	<circle style="fill:#F6E4C3;" cx="3.5" cy="64" r="3.5"/>
</g>
<g>
	<path style="fill:#F6E4C3;" d="M15.1,80.5c1.8-0.7,18.4-3.8,18.4-3.8s-14,9.6-15.8,10.3c-1.8,0.7-3.8-0.1-4.6-1.9
		C12.4,83.3,13.3,81.2,15.1,80.5z"/>
</g>
<g>
	
		<ellipse transform="matrix(0.9239 -0.3827 0.3827 0.9239 -32.7348 9.7358)" style="fill:#F6E4C3;" cx="8.1" cy="87.2" rx="3.5" ry="3.5"/>
</g>
<g>
	<path style="fill:#F6E4C3;" d="M25.1,97.9c1.4-1.4,15.6-10.6,15.6-10.6s-9.2,14.2-10.6,15.6c-1.4,1.4-3.6,1.4-4.9,0
		C23.7,101.5,23.7,99.3,25.1,97.9z"/>
</g>
<g>
	
		<ellipse transform="matrix(0.7071 -0.7071 0.7071 0.7071 -69.2896 46.28)" style="fill:#F6E4C3;" cx="21.2" cy="106.8" rx="3.5" ry="3.5"/>
</g>
<g>
	<path style="fill:#F6E4C3;" d="M41.1,110.2c0.7-1.8,10.3-15.8,10.3-15.8s-3.1,16.6-3.8,18.4c-0.7,1.8-2.8,2.6-4.6,1.9
		C41.2,114.1,40.3,112,41.1,110.2z"/>
</g>
<g>
	
		<ellipse transform="matrix(0.3827 -0.9239 0.9239 0.3827 -85.5523 111.7513)" style="fill:#F6E4C3;" cx="40.8" cy="119.9" rx="3.5" ry="3.5"/>
</g>
<g>
	<path style="fill:#F6E4C3;" d="M60.5,115.5C60.5,113.6,64,97,64,97s3.5,16.6,3.5,18.5S65.9,119,64,119
		C62.1,119,60.5,117.4,60.5,115.5z"/>
</g>
<g>
	<circle style="fill:#F6E4C3;" cx="64" cy="124.5" r="3.5"/>
</g>
<g>
	<path style="fill:#F6E4C3;" d="M80.5,112.9c-0.7-1.8-3.8-18.4-3.8-18.4s9.6,14,10.3,15.8c0.7,1.8-0.1,3.8-1.9,4.6
		C83.3,115.6,81.2,114.7,80.5,112.9z"/>
</g>
<g>
	
		<ellipse transform="matrix(0.9239 -0.3827 0.3827 0.9239 -39.2476 42.4782)" style="fill:#F6E4C3;" cx="87.2" cy="119.9" rx="3.5" ry="3.5"/>
</g>
<g>
	<path style="fill:#F6E4C3;" d="M97.9,102.9c-1.4-1.4-10.6-15.6-10.6-15.6s14.2,9.2,15.6,10.6c1.4,1.4,1.4,3.6,0,4.9
		C101.5,104.3,99.3,104.3,97.9,102.9z"/>
</g>
<g>
	
		<ellipse transform="matrix(0.7071 -0.7071 0.7071 0.7071 -44.2297 106.78)" style="fill:#F6E4C3;" cx="106.8" cy="106.8" rx="3.5" ry="3.5"/>
</g>
<g>
	<path style="fill:#F6E4C3;" d="M110.2,86.9c-1.8-0.7-15.8-10.3-15.8-10.3s16.6,3.1,18.4,3.8c1.8,0.7,2.6,2.8,1.9,4.6
		C114.1,86.8,112,87.7,110.2,86.9z"/>
</g>
<g>
	
		<ellipse transform="matrix(0.3827 -0.9239 0.9239 0.3827 -6.5053 164.5689)" style="fill:#F6E4C3;" cx="119.9" cy="87.2" rx="3.5" ry="3.5"/>
</g>
<g>
	<path style="fill:#F6E4C3;" d="M115.5,67.5C113.6,67.5,97,64,97,64s16.6-3.5,18.5-3.5s3.5,1.6,3.5,3.5
		C119,65.9,117.4,67.5,115.5,67.5z"/>
</g>
<g>
	<circle style="fill:#F6E4C3;" cx="124.5" cy="64" r="3.5"/>
</g>
<g>
	<path style="fill:#F6E4C3;" d="M112.9,47.5c-1.8,0.7-18.4,3.8-18.4,3.8s14-9.6,15.8-10.3c1.8-0.7,3.8,0.1,4.6,1.9
		C115.6,44.7,114.7,46.8,112.9,47.5z"/>
</g>
<g>
	
		<ellipse transform="matrix(0.9239 -0.3827 0.3827 0.9239 -6.5053 48.9911)" style="fill:#F6E4C3;" cx="119.9" cy="40.8" rx="3.5" ry="3.5"/>
</g>
<g>
	<path style="fill:#F6E4C3;" d="M102.9,30.1c-1.4,1.4-15.6,10.6-15.6,10.6s9.2-14.2,10.6-15.6s3.6-1.4,4.9,0
		C104.3,26.5,104.3,28.7,102.9,30.1z"/>
</g>
<g>
	
		<ellipse transform="matrix(0.7071 -0.7071 0.7071 0.7071 16.2703 81.72)" style="fill:#F6E4C3;" cx="106.8" cy="21.2" rx="3.5" ry="3.5"/>
</g>
<g>
	<path style="fill:#F6E4C3;" d="M86.9,17.8c-0.7,1.8-10.3,15.8-10.3,15.8s3.1-16.6,3.8-18.4c0.7-1.8,2.8-2.6,4.6-1.9
		C86.8,13.9,87.7,16,86.9,17.8z"/>
</g>
<g>
	
		<ellipse transform="matrix(0.3827 -0.9239 0.9239 0.3827 46.3123 85.5218)" style="fill:#F6E4C3;" cx="87.2" cy="8.1" rx="3.5" ry="3.5"/>
</g>
<circle style="fill:#F2F2F3;" cx="64" cy="64" r="30"/>
<circle style="fill:none;stroke:#999999;stroke-width:4;stroke-miterlimit:10;" cx="64" cy="64" r="25"/>
<circle style="fill:#B3B4B4;stroke:#B3B4B4;stroke-miterlimit:10;" cx="51" cy="61" r="4.5"/>
<path style="fill:none;stroke:#B3B4B4;stroke-linejoin:round;stroke-miterlimit:10;" d="M72.4,69.4c-1,2.3-2.5,3.8-4.2,3.8
	c-1.7,0-3.2-1.5-4.2-3.8l0,0c-1,2.3-2.5,3.8-4.2,3.8c-1.8,0-3.3-1.7-4.4-4.2"/>
<circle style="fill:#B3B4B4;stroke:#B3B4B4;stroke-miterlimit:10;" cx="77" cy="61" r="4.5"/>
<path style="fill:none;stroke:#B3B4B4;stroke-linejoin:round;stroke-miterlimit:10;" d="M69.4,73c-0.5,4.2-2.7,7.5-5.4,7.5
	c-2.7,0-5-3.3-5.4-7.5"/>
</svg>
