<?xml version="1.0" encoding="utf-8"?>
<!-- Generator: Adobe Illustrator 21.0.0, SVG Export Plug-In . SVG Version: 6.00 Build 0)  -->
<svg version="1.1" id="Layer_1" xmlns="http://www.w3.org/2000/svg" xmlns:xlink="http://www.w3.org/1999/xlink" x="0px" y="0px"
	 viewBox="0 0 128 128" style="enable-background:new 0 0 128 128;" xml:space="preserve">
<g>
	<linearGradient id="SVGID_1_" gradientUnits="userSpaceOnUse" x1="64" y1="10.6667" x2="64" y2="46.3431">
		<stop  offset="0" style="stop-color:#F78E1E"/>
		<stop  offset="5.396068e-03" style="stop-color:#F78F1F"/>
		<stop  offset="0.1323" style="stop-color:#F9A72F"/>
		<stop  offset="0.2661" style="stop-color:#FBBC3E"/>
		<stop  offset="0.4101" style="stop-color:#FCCC4C"/>
		<stop  offset="0.5671" style="stop-color:#FDD756"/>
		<stop  offset="0.7468" style="stop-color:#FEDE5C"/>
		<stop  offset="1" style="stop-color:#FEE05E"/>
	</linearGradient>
	<path style="fill:url(#SVGID_1_);" d="M67.5,12.5C67.5,14.4,64,48,64,48s-3.5-33.6-3.5-35.5S62.1,9,64,9
		C65.9,9,67.5,10.6,67.5,12.5z"/>
</g>
<g>
	
		<linearGradient id="SVGID_2_" gradientUnits="userSpaceOnUse" x1="65.4219" y1="-3.77" x2="65.4219" y2="31.9064" gradientTransform="matrix(0.9808 -0.1951 0.1951 0.9808 -9.8341 28.1522)">
		<stop  offset="0" style="stop-color:#F78E1E"/>
		<stop  offset="5.396068e-03" style="stop-color:#F78F1F"/>
		<stop  offset="0.1323" style="stop-color:#F9A72F"/>
		<stop  offset="0.2661" style="stop-color:#FBBC3E"/>
		<stop  offset="0.4101" style="stop-color:#FCCC4C"/>
		<stop  offset="0.5671" style="stop-color:#FDD756"/>
		<stop  offset="0.7468" style="stop-color:#FEDE5C"/>
		<stop  offset="1" style="stop-color:#FEE05E"/>
	</linearGradient>
	<path style="fill:url(#SVGID_2_);" d="M57.4,12.8c0.4,1.9,3.5,35.5,3.5,35.5s-10-32.2-10.4-34.1c-0.4-1.9,0.9-3.7,2.7-4.1
		C55.2,9.7,57,10.9,57.4,12.8z"/>
</g>
<g>
	
		<linearGradient id="SVGID_3_" gradientUnits="userSpaceOnUse" x1="69.6329" y1="-17.6519" x2="69.6329" y2="18.0245" gradientTransform="matrix(0.9239 -0.3827 0.3827 0.9239 -13.9871 57.682)">
		<stop  offset="0" style="stop-color:#F78E1E"/>
		<stop  offset="5.396068e-03" style="stop-color:#F78F1F"/>
		<stop  offset="0.1323" style="stop-color:#F9A72F"/>
		<stop  offset="0.2661" style="stop-color:#FBBC3E"/>
		<stop  offset="0.4101" style="stop-color:#FCCC4C"/>
		<stop  offset="0.5671" style="stop-color:#FDD756"/>
		<stop  offset="0.7468" style="stop-color:#FEDE5C"/>
		<stop  offset="1" style="stop-color:#FEE05E"/>
	</linearGradient>
	<path style="fill:url(#SVGID_3_);" d="M47.5,15.1c0.7,1.8,10.4,34.1,10.4,34.1S41.8,19.5,41.1,17.8c-0.7-1.8,0.1-3.8,1.9-4.6
		C44.7,12.4,46.8,13.3,47.5,15.1z"/>
</g>
<g>
	
		<linearGradient id="SVGID_4_" gradientUnits="userSpaceOnUse" x1="76.4713" y1="-30.4455" x2="76.4713" y2="5.2309" gradientTransform="matrix(0.8315 -0.5556 0.5556 0.8315 -12.2993 87.4546)">
		<stop  offset="0" style="stop-color:#F78E1E"/>
		<stop  offset="5.396068e-03" style="stop-color:#F78F1F"/>
		<stop  offset="0.1323" style="stop-color:#F9A72F"/>
		<stop  offset="0.2661" style="stop-color:#FBBC3E"/>
		<stop  offset="0.4101" style="stop-color:#FCCC4C"/>
		<stop  offset="0.5671" style="stop-color:#FDD756"/>
		<stop  offset="0.7468" style="stop-color:#FEDE5C"/>
		<stop  offset="1" style="stop-color:#FEE05E"/>
	</linearGradient>
	<path style="fill:url(#SVGID_4_);" d="M38.3,19.2c1.1,1.6,16.8,31.5,16.8,31.5s-21.6-26-22.6-27.6c-1.1-1.6-0.6-3.8,1-4.9
		C35.1,17.2,37.2,17.6,38.3,19.2z"/>
</g>
<g>
	
		<linearGradient id="SVGID_5_" gradientUnits="userSpaceOnUse" x1="85.6741" y1="-41.6592" x2="85.6741" y2="-5.9828" gradientTransform="matrix(0.7071 -0.7071 0.7071 0.7071 -4.8356 116.3259)">
		<stop  offset="0" style="stop-color:#F78E1E"/>
		<stop  offset="5.396068e-03" style="stop-color:#F78F1F"/>
		<stop  offset="0.1323" style="stop-color:#F9A72F"/>
		<stop  offset="0.2661" style="stop-color:#FBBC3E"/>
		<stop  offset="0.4101" style="stop-color:#FCCC4C"/>
		<stop  offset="0.5671" style="stop-color:#FDD756"/>
		<stop  offset="0.7468" style="stop-color:#FEDE5C"/>
		<stop  offset="1" style="stop-color:#FEE05E"/>
	</linearGradient>
	<path style="fill:url(#SVGID_5_);" d="M30.1,25.1c1.4,1.4,22.6,27.6,22.6,27.6S26.5,31.4,25.1,30.1s-1.4-3.6,0-4.9
		S28.7,23.7,30.1,25.1z"/>
</g>
<g>
	
		<linearGradient id="SVGID_6_" gradientUnits="userSpaceOnUse" x1="96.8878" y1="-50.8621" x2="96.8878" y2="-15.1857" gradientTransform="matrix(0.5556 -0.8315 0.8315 0.5556 8.1173 143.1863)">
		<stop  offset="0" style="stop-color:#F78E1E"/>
		<stop  offset="5.396068e-03" style="stop-color:#F78F1F"/>
		<stop  offset="0.1323" style="stop-color:#F9A72F"/>
		<stop  offset="0.2661" style="stop-color:#FBBC3E"/>
		<stop  offset="0.4101" style="stop-color:#FCCC4C"/>
		<stop  offset="0.5671" style="stop-color:#FDD756"/>
		<stop  offset="0.7468" style="stop-color:#FEDE5C"/>
		<stop  offset="1" style="stop-color:#FEE05E"/>
	</linearGradient>
	<path style="fill:url(#SVGID_6_);" d="M23.1,32.5c1.6,1.1,27.6,22.6,27.6,22.6S20.8,39.4,19.2,38.3c-1.6-1.1-2-3.2-1-4.9
		C19.3,31.8,21.5,31.4,23.1,32.5z"/>
</g>
<g>
	
		<linearGradient id="SVGID_7_" gradientUnits="userSpaceOnUse" x1="109.6814" y1="-57.7004" x2="109.6814" y2="-22.024" gradientTransform="matrix(0.3827 -0.9239 0.9239 0.3827 26.0614 167.0036)">
		<stop  offset="0" style="stop-color:#F78E1E"/>
		<stop  offset="5.396068e-03" style="stop-color:#F78F1F"/>
		<stop  offset="0.1323" style="stop-color:#F9A72F"/>
		<stop  offset="0.2661" style="stop-color:#FBBC3E"/>
		<stop  offset="0.4101" style="stop-color:#FCCC4C"/>
		<stop  offset="0.5671" style="stop-color:#FDD756"/>
		<stop  offset="0.7468" style="stop-color:#FEDE5C"/>
		<stop  offset="1" style="stop-color:#FEE05E"/>
	</linearGradient>
	<path style="fill:url(#SVGID_7_);" d="M17.8,41.1c1.8,0.7,31.5,16.8,31.5,16.8s-32.4-9.6-34.1-10.4c-1.8-0.7-2.6-2.8-1.9-4.6
		C13.9,41.2,16,40.3,17.8,41.1z"/>
</g>
<g>
	
		<linearGradient id="SVGID_8_" gradientUnits="userSpaceOnUse" x1="123.5633" y1="-61.9114" x2="123.5633" y2="-26.235" gradientTransform="matrix(0.1951 -0.9808 0.9808 0.1951 48.3073 186.8626)">
		<stop  offset="0" style="stop-color:#F78E1E"/>
		<stop  offset="5.396068e-03" style="stop-color:#F78F1F"/>
		<stop  offset="0.1323" style="stop-color:#F9A72F"/>
		<stop  offset="0.2661" style="stop-color:#FBBC3E"/>
		<stop  offset="0.4101" style="stop-color:#FCCC4C"/>
		<stop  offset="0.5671" style="stop-color:#FDD756"/>
		<stop  offset="0.7468" style="stop-color:#FEDE5C"/>
		<stop  offset="1" style="stop-color:#FEE05E"/>
	</linearGradient>
	<path style="fill:url(#SVGID_8_);" d="M14.2,50.5c1.9,0.4,34.1,10.4,34.1,10.4s-33.6-3.1-35.5-3.5s-3.1-2.2-2.7-4.1
		C10.4,51.4,12.3,50.1,14.2,50.5z"/>
</g>
<g>
	
		<linearGradient id="SVGID_9_" gradientUnits="userSpaceOnUse" x1="138" y1="-63.3333" x2="138" y2="-27.6569" gradientTransform="matrix(4.489653e-11 -1 1 4.489653e-11 74 202)">
		<stop  offset="0" style="stop-color:#F78E1E"/>
		<stop  offset="5.396068e-03" style="stop-color:#F78F1F"/>
		<stop  offset="0.1323" style="stop-color:#F9A72F"/>
		<stop  offset="0.2661" style="stop-color:#FBBC3E"/>
		<stop  offset="0.4101" style="stop-color:#FCCC4C"/>
		<stop  offset="0.5671" style="stop-color:#FDD756"/>
		<stop  offset="0.7468" style="stop-color:#FEDE5C"/>
		<stop  offset="1" style="stop-color:#FEE05E"/>
	</linearGradient>
	<path style="fill:url(#SVGID_9_);" d="M12.5,60.5C14.4,60.5,48,64,48,64s-33.6,3.5-35.5,3.5S9,65.9,9,64
		C9,62.1,10.6,60.5,12.5,60.5z"/>
</g>
<g>
	
		<linearGradient id="SVGID_10_" gradientUnits="userSpaceOnUse" x1="152.4367" y1="-61.9114" x2="152.4367" y2="-26.235" gradientTransform="matrix(-0.1951 -0.9808 0.9808 -0.1951 102.1522 211.8342)">
		<stop  offset="0" style="stop-color:#F78E1E"/>
		<stop  offset="5.396068e-03" style="stop-color:#F78F1F"/>
		<stop  offset="0.1323" style="stop-color:#F9A72F"/>
		<stop  offset="0.2661" style="stop-color:#FBBC3E"/>
		<stop  offset="0.4101" style="stop-color:#FCCC4C"/>
		<stop  offset="0.5671" style="stop-color:#FDD756"/>
		<stop  offset="0.7468" style="stop-color:#FEDE5C"/>
		<stop  offset="1" style="stop-color:#FEE05E"/>
	</linearGradient>
	<path style="fill:url(#SVGID_10_);" d="M12.8,70.6c1.9-0.4,35.5-3.5,35.5-3.5s-32.2,10-34.1,10.4c-1.9,0.4-3.7-0.9-4.1-2.7
		C9.7,72.8,10.9,71,12.8,70.6z"/>
</g>
<g>
	
		<linearGradient id="SVGID_11_" gradientUnits="userSpaceOnUse" x1="166.3186" y1="-57.7004" x2="166.3186" y2="-22.024" gradientTransform="matrix(-0.3827 -0.9239 0.9239 -0.3827 131.682 215.9871)">
		<stop  offset="0" style="stop-color:#F78E1E"/>
		<stop  offset="5.396068e-03" style="stop-color:#F78F1F"/>
		<stop  offset="0.1323" style="stop-color:#F9A72F"/>
		<stop  offset="0.2661" style="stop-color:#FBBC3E"/>
		<stop  offset="0.4101" style="stop-color:#FCCC4C"/>
		<stop  offset="0.5671" style="stop-color:#FDD756"/>
		<stop  offset="0.7468" style="stop-color:#FEDE5C"/>
		<stop  offset="1" style="stop-color:#FEE05E"/>
	</linearGradient>
	<path style="fill:url(#SVGID_11_);" d="M15.1,80.5c1.8-0.7,34.1-10.4,34.1-10.4S19.5,86.2,17.8,86.9c-1.8,0.7-3.8-0.1-4.6-1.9
		C12.4,83.3,13.3,81.2,15.1,80.5z"/>
</g>
<g>
	
		<linearGradient id="SVGID_12_" gradientUnits="userSpaceOnUse" x1="179.1122" y1="-50.8621" x2="179.1122" y2="-15.1857" gradientTransform="matrix(-0.5556 -0.8315 0.8315 -0.5556 161.4546 214.2993)">
		<stop  offset="0" style="stop-color:#F78E1E"/>
		<stop  offset="5.396068e-03" style="stop-color:#F78F1F"/>
		<stop  offset="0.1323" style="stop-color:#F9A72F"/>
		<stop  offset="0.2661" style="stop-color:#FBBC3E"/>
		<stop  offset="0.4101" style="stop-color:#FCCC4C"/>
		<stop  offset="0.5671" style="stop-color:#FDD756"/>
		<stop  offset="0.7468" style="stop-color:#FEDE5C"/>
		<stop  offset="1" style="stop-color:#FEE05E"/>
	</linearGradient>
	<path style="fill:url(#SVGID_12_);" d="M19.2,89.7c1.6-1.1,31.5-16.8,31.5-16.8s-26,21.6-27.6,22.6c-1.6,1.1-3.8,0.6-4.9-1
		C17.2,92.9,17.6,90.8,19.2,89.7z"/>
</g>
<g>
	
		<linearGradient id="SVGID_13_" gradientUnits="userSpaceOnUse" x1="190.3259" y1="-41.6592" x2="190.3259" y2="-5.9828" gradientTransform="matrix(-0.7071 -0.7071 0.7071 -0.7071 190.3259 206.8356)">
		<stop  offset="0" style="stop-color:#F78E1E"/>
		<stop  offset="5.396068e-03" style="stop-color:#F78F1F"/>
		<stop  offset="0.1323" style="stop-color:#F9A72F"/>
		<stop  offset="0.2661" style="stop-color:#FBBC3E"/>
		<stop  offset="0.4101" style="stop-color:#FCCC4C"/>
		<stop  offset="0.5671" style="stop-color:#FDD756"/>
		<stop  offset="0.7468" style="stop-color:#FEDE5C"/>
		<stop  offset="1" style="stop-color:#FEE05E"/>
	</linearGradient>
	<path style="fill:url(#SVGID_13_);" d="M25.1,97.9c1.4-1.4,27.6-22.6,27.6-22.6s-21.3,26.2-22.6,27.6c-1.4,1.4-3.6,1.4-4.9,0
		C23.7,101.5,23.7,99.3,25.1,97.9z"/>
</g>
<g>
	
		<linearGradient id="SVGID_14_" gradientUnits="userSpaceOnUse" x1="199.5287" y1="-30.4455" x2="199.5287" y2="5.2309" gradientTransform="matrix(-0.8315 -0.5556 0.5556 -0.8315 217.1863 193.8828)">
		<stop  offset="0" style="stop-color:#F78E1E"/>
		<stop  offset="5.396068e-03" style="stop-color:#F78F1F"/>
		<stop  offset="0.1323" style="stop-color:#F9A72F"/>
		<stop  offset="0.2661" style="stop-color:#FBBC3E"/>
		<stop  offset="0.4101" style="stop-color:#FCCC4C"/>
		<stop  offset="0.5671" style="stop-color:#FDD756"/>
		<stop  offset="0.7468" style="stop-color:#FEDE5C"/>
		<stop  offset="1" style="stop-color:#FEE05E"/>
	</linearGradient>
	<path style="fill:url(#SVGID_14_);" d="M32.5,104.9c1.1-1.6,22.6-27.6,22.6-27.6s-15.7,29.9-16.8,31.5c-1.1,1.6-3.2,2-4.9,1
		C31.8,108.7,31.4,106.5,32.5,104.9z"/>
</g>
<g>
	
		<linearGradient id="SVGID_15_" gradientUnits="userSpaceOnUse" x1="206.3671" y1="-17.6519" x2="206.3671" y2="18.0245" gradientTransform="matrix(-0.9239 -0.3827 0.3827 -0.9239 241.0036 175.9386)">
		<stop  offset="0" style="stop-color:#F78E1E"/>
		<stop  offset="5.396068e-03" style="stop-color:#F78F1F"/>
		<stop  offset="0.1323" style="stop-color:#F9A72F"/>
		<stop  offset="0.2661" style="stop-color:#FBBC3E"/>
		<stop  offset="0.4101" style="stop-color:#FCCC4C"/>
		<stop  offset="0.5671" style="stop-color:#FDD756"/>
		<stop  offset="0.7468" style="stop-color:#FEDE5C"/>
		<stop  offset="1" style="stop-color:#FEE05E"/>
	</linearGradient>
	<path style="fill:url(#SVGID_15_);" d="M41.1,110.2c0.7-1.8,16.8-31.5,16.8-31.5s-9.6,32.4-10.4,34.1c-0.7,1.8-2.8,2.6-4.6,1.9
		C41.2,114.1,40.3,112,41.1,110.2z"/>
</g>
<g>
	
		<linearGradient id="SVGID_16_" gradientUnits="userSpaceOnUse" x1="210.5781" y1="-3.77" x2="210.5781" y2="31.9064" gradientTransform="matrix(-0.9808 -0.1951 0.1951 -0.9808 260.8626 153.6927)">
		<stop  offset="0" style="stop-color:#F78E1E"/>
		<stop  offset="5.396068e-03" style="stop-color:#F78F1F"/>
		<stop  offset="0.1323" style="stop-color:#F9A72F"/>
		<stop  offset="0.2661" style="stop-color:#FBBC3E"/>
		<stop  offset="0.4101" style="stop-color:#FCCC4C"/>
		<stop  offset="0.5671" style="stop-color:#FDD756"/>
		<stop  offset="0.7468" style="stop-color:#FEDE5C"/>
		<stop  offset="1" style="stop-color:#FEE05E"/>
	</linearGradient>
	<path style="fill:url(#SVGID_16_);" d="M50.5,113.8c0.4-1.9,10.4-34.1,10.4-34.1s-3.1,33.6-3.5,35.5c-0.4,1.9-2.2,3.1-4.1,2.7
		C51.4,117.6,50.1,115.7,50.5,113.8z"/>
</g>
<g>
	
		<linearGradient id="SVGID_17_" gradientUnits="userSpaceOnUse" x1="212" y1="10.6667" x2="212" y2="46.3431" gradientTransform="matrix(-1 0 0 -1 276 128)">
		<stop  offset="0" style="stop-color:#F78E1E"/>
		<stop  offset="5.396068e-03" style="stop-color:#F78F1F"/>
		<stop  offset="0.1323" style="stop-color:#F9A72F"/>
		<stop  offset="0.2661" style="stop-color:#FBBC3E"/>
		<stop  offset="0.4101" style="stop-color:#FCCC4C"/>
		<stop  offset="0.5671" style="stop-color:#FDD756"/>
		<stop  offset="0.7468" style="stop-color:#FEDE5C"/>
		<stop  offset="1" style="stop-color:#FEE05E"/>
	</linearGradient>
	<path style="fill:url(#SVGID_17_);" d="M60.5,115.5C60.5,113.6,64,80,64,80s3.5,33.6,3.5,35.5S65.9,119,64,119
		C62.1,119,60.5,117.4,60.5,115.5z"/>
</g>
<g>
	
		<linearGradient id="SVGID_18_" gradientUnits="userSpaceOnUse" x1="210.5781" y1="25.1034" x2="210.5781" y2="60.7798" gradientTransform="matrix(-0.9808 0.1951 -0.1951 -0.9808 285.8341 99.8478)">
		<stop  offset="0" style="stop-color:#F78E1E"/>
		<stop  offset="5.396068e-03" style="stop-color:#F78F1F"/>
		<stop  offset="0.1323" style="stop-color:#F9A72F"/>
		<stop  offset="0.2661" style="stop-color:#FBBC3E"/>
		<stop  offset="0.4101" style="stop-color:#FCCC4C"/>
		<stop  offset="0.5671" style="stop-color:#FDD756"/>
		<stop  offset="0.7468" style="stop-color:#FEDE5C"/>
		<stop  offset="1" style="stop-color:#FEE05E"/>
	</linearGradient>
	<path style="fill:url(#SVGID_18_);" d="M70.6,115.2c-0.4-1.9-3.5-35.5-3.5-35.5s10,32.2,10.4,34.1c0.4,1.9-0.9,3.7-2.7,4.1
		C72.8,118.3,71,117.1,70.6,115.2z"/>
</g>
<g>
	
		<linearGradient id="SVGID_19_" gradientUnits="userSpaceOnUse" x1="206.3671" y1="38.9852" x2="206.3671" y2="74.6616" gradientTransform="matrix(-0.9239 0.3827 -0.3827 -0.9239 289.9871 70.318)">
		<stop  offset="0" style="stop-color:#F78E1E"/>
		<stop  offset="5.396068e-03" style="stop-color:#F78F1F"/>
		<stop  offset="0.1323" style="stop-color:#F9A72F"/>
		<stop  offset="0.2661" style="stop-color:#FBBC3E"/>
		<stop  offset="0.4101" style="stop-color:#FCCC4C"/>
		<stop  offset="0.5671" style="stop-color:#FDD756"/>
		<stop  offset="0.7468" style="stop-color:#FEDE5C"/>
		<stop  offset="1" style="stop-color:#FEE05E"/>
	</linearGradient>
	<path style="fill:url(#SVGID_19_);" d="M80.5,112.9c-0.7-1.8-10.4-34.1-10.4-34.1s16.1,29.7,16.8,31.5c0.7,1.8-0.1,3.8-1.9,4.6
		C83.3,115.6,81.2,114.7,80.5,112.9z"/>
</g>
<g>
	
		<linearGradient id="SVGID_20_" gradientUnits="userSpaceOnUse" x1="199.5287" y1="51.7789" x2="199.5287" y2="87.4553" gradientTransform="matrix(-0.8315 0.5556 -0.5556 -0.8315 288.2993 40.5454)">
		<stop  offset="0" style="stop-color:#F78E1E"/>
		<stop  offset="5.396068e-03" style="stop-color:#F78F1F"/>
		<stop  offset="0.1323" style="stop-color:#F9A72F"/>
		<stop  offset="0.2661" style="stop-color:#FBBC3E"/>
		<stop  offset="0.4101" style="stop-color:#FCCC4C"/>
		<stop  offset="0.5671" style="stop-color:#FDD756"/>
		<stop  offset="0.7468" style="stop-color:#FEDE5C"/>
		<stop  offset="1" style="stop-color:#FEE05E"/>
	</linearGradient>
	<path style="fill:url(#SVGID_20_);" d="M89.7,108.8c-1.1-1.6-16.8-31.5-16.8-31.5s21.6,26,22.6,27.6c1.1,1.6,0.6,3.8-1,4.9
		C92.9,110.8,90.8,110.4,89.7,108.8z"/>
</g>
<g>
	
		<linearGradient id="SVGID_21_" gradientUnits="userSpaceOnUse" x1="190.3259" y1="62.9926" x2="190.3259" y2="98.669" gradientTransform="matrix(-0.7071 0.7071 -0.7071 -0.7071 280.8356 11.6741)">
		<stop  offset="0" style="stop-color:#F78E1E"/>
		<stop  offset="5.396068e-03" style="stop-color:#F78F1F"/>
		<stop  offset="0.1323" style="stop-color:#F9A72F"/>
		<stop  offset="0.2661" style="stop-color:#FBBC3E"/>
		<stop  offset="0.4101" style="stop-color:#FCCC4C"/>
		<stop  offset="0.5671" style="stop-color:#FDD756"/>
		<stop  offset="0.7468" style="stop-color:#FEDE5C"/>
		<stop  offset="1" style="stop-color:#FEE05E"/>
	</linearGradient>
	<path style="fill:url(#SVGID_21_);" d="M97.9,102.9c-1.4-1.4-22.6-27.6-22.6-27.6s26.2,21.3,27.6,22.6c1.4,1.4,1.4,3.6,0,4.9
		C101.5,104.3,99.3,104.3,97.9,102.9z"/>
</g>
<g>
	
		<linearGradient id="SVGID_22_" gradientUnits="userSpaceOnUse" x1="179.1122" y1="72.1954" x2="179.1122" y2="107.8718" gradientTransform="matrix(-0.5556 0.8315 -0.8315 -0.5556 267.8828 -15.1863)">
		<stop  offset="0" style="stop-color:#F78E1E"/>
		<stop  offset="5.396068e-03" style="stop-color:#F78F1F"/>
		<stop  offset="0.1323" style="stop-color:#F9A72F"/>
		<stop  offset="0.2661" style="stop-color:#FBBC3E"/>
		<stop  offset="0.4101" style="stop-color:#FCCC4C"/>
		<stop  offset="0.5671" style="stop-color:#FDD756"/>
		<stop  offset="0.7468" style="stop-color:#FEDE5C"/>
		<stop  offset="1" style="stop-color:#FEE05E"/>
	</linearGradient>
	<path style="fill:url(#SVGID_22_);" d="M104.9,95.5c-1.6-1.1-27.6-22.6-27.6-22.6s29.9,15.7,31.5,16.8c1.6,1.1,2,3.2,1,4.9
		C108.7,96.2,106.5,96.6,104.9,95.5z"/>
</g>
<g>
	
		<linearGradient id="SVGID_23_" gradientUnits="userSpaceOnUse" x1="166.3186" y1="79.0338" x2="166.3186" y2="114.7102" gradientTransform="matrix(-0.3827 0.9239 -0.9239 -0.3827 249.9386 -39.0036)">
		<stop  offset="0" style="stop-color:#F78E1E"/>
		<stop  offset="5.396068e-03" style="stop-color:#F78F1F"/>
		<stop  offset="0.1323" style="stop-color:#F9A72F"/>
		<stop  offset="0.2661" style="stop-color:#FBBC3E"/>
		<stop  offset="0.4101" style="stop-color:#FCCC4C"/>
		<stop  offset="0.5671" style="stop-color:#FDD756"/>
		<stop  offset="0.7468" style="stop-color:#FEDE5C"/>
		<stop  offset="1" style="stop-color:#FEE05E"/>
	</linearGradient>
	<path style="fill:url(#SVGID_23_);" d="M110.2,86.9c-1.8-0.7-31.5-16.8-31.5-16.8s32.4,9.6,34.1,10.4c1.8,0.7,2.6,2.8,1.9,4.6
		C114.1,86.8,112,87.7,110.2,86.9z"/>
</g>
<g>
	
		<linearGradient id="SVGID_24_" gradientUnits="userSpaceOnUse" x1="152.4367" y1="83.2448" x2="152.4367" y2="118.9212" gradientTransform="matrix(-0.1951 0.9808 -0.9808 -0.1951 227.6927 -58.8626)">
		<stop  offset="0" style="stop-color:#F78E1E"/>
		<stop  offset="5.396068e-03" style="stop-color:#F78F1F"/>
		<stop  offset="0.1323" style="stop-color:#F9A72F"/>
		<stop  offset="0.2661" style="stop-color:#FBBC3E"/>
		<stop  offset="0.4101" style="stop-color:#FCCC4C"/>
		<stop  offset="0.5671" style="stop-color:#FDD756"/>
		<stop  offset="0.7468" style="stop-color:#FEDE5C"/>
		<stop  offset="1" style="stop-color:#FEE05E"/>
	</linearGradient>
	<path style="fill:url(#SVGID_24_);" d="M113.8,77.5c-1.9-0.4-34.1-10.4-34.1-10.4s33.6,3.1,35.5,3.5c1.9,0.4,3.1,2.2,2.7,4.1
		C117.6,76.6,115.7,77.9,113.8,77.5z"/>
</g>
<g>
	
		<linearGradient id="SVGID_25_" gradientUnits="userSpaceOnUse" x1="138" y1="84.6667" x2="138" y2="120.3431" gradientTransform="matrix(-4.489653e-11 1 -1 -4.489653e-11 202 -74)">
		<stop  offset="0" style="stop-color:#F78E1E"/>
		<stop  offset="5.396068e-03" style="stop-color:#F78F1F"/>
		<stop  offset="0.1323" style="stop-color:#F9A72F"/>
		<stop  offset="0.2661" style="stop-color:#FBBC3E"/>
		<stop  offset="0.4101" style="stop-color:#FCCC4C"/>
		<stop  offset="0.5671" style="stop-color:#FDD756"/>
		<stop  offset="0.7468" style="stop-color:#FEDE5C"/>
		<stop  offset="1" style="stop-color:#FEE05E"/>
	</linearGradient>
	<path style="fill:url(#SVGID_25_);" d="M115.5,67.5C113.6,67.5,80,64,80,64s33.6-3.5,35.5-3.5s3.5,1.6,3.5,3.5
		C119,65.9,117.4,67.5,115.5,67.5z"/>
</g>
<g>
	
		<linearGradient id="SVGID_26_" gradientUnits="userSpaceOnUse" x1="123.5633" y1="83.2448" x2="123.5633" y2="118.9212" gradientTransform="matrix(0.1951 0.9808 -0.9808 0.1951 173.8478 -83.8342)">
		<stop  offset="0" style="stop-color:#F78E1E"/>
		<stop  offset="5.396068e-03" style="stop-color:#F78F1F"/>
		<stop  offset="0.1323" style="stop-color:#F9A72F"/>
		<stop  offset="0.2661" style="stop-color:#FBBC3E"/>
		<stop  offset="0.4101" style="stop-color:#FCCC4C"/>
		<stop  offset="0.5671" style="stop-color:#FDD756"/>
		<stop  offset="0.7468" style="stop-color:#FEDE5C"/>
		<stop  offset="1" style="stop-color:#FEE05E"/>
	</linearGradient>
	<path style="fill:url(#SVGID_26_);" d="M115.2,57.4c-1.9,0.4-35.5,3.5-35.5,3.5s32.2-10,34.1-10.4c1.9-0.4,3.7,0.9,4.1,2.7
		C118.3,55.2,117.1,57,115.2,57.4z"/>
</g>
<g>
	
		<linearGradient id="SVGID_27_" gradientUnits="userSpaceOnUse" x1="109.6814" y1="79.0338" x2="109.6814" y2="114.7102" gradientTransform="matrix(0.3827 0.9239 -0.9239 0.3827 144.318 -87.9871)">
		<stop  offset="0" style="stop-color:#F78E1E"/>
		<stop  offset="5.396068e-03" style="stop-color:#F78F1F"/>
		<stop  offset="0.1323" style="stop-color:#F9A72F"/>
		<stop  offset="0.2661" style="stop-color:#FBBC3E"/>
		<stop  offset="0.4101" style="stop-color:#FCCC4C"/>
		<stop  offset="0.5671" style="stop-color:#FDD756"/>
		<stop  offset="0.7468" style="stop-color:#FEDE5C"/>
		<stop  offset="1" style="stop-color:#FEE05E"/>
	</linearGradient>
	<path style="fill:url(#SVGID_27_);" d="M112.9,47.5c-1.8,0.7-34.1,10.4-34.1,10.4s29.7-16.1,31.5-16.8c1.8-0.7,3.8,0.1,4.6,1.9
		C115.6,44.7,114.7,46.8,112.9,47.5z"/>
</g>
<g>
	
		<linearGradient id="SVGID_28_" gradientUnits="userSpaceOnUse" x1="96.8878" y1="72.1954" x2="96.8878" y2="107.8718" gradientTransform="matrix(0.5556 0.8315 -0.8315 0.5556 114.5454 -86.2993)">
		<stop  offset="0" style="stop-color:#F78E1E"/>
		<stop  offset="5.396068e-03" style="stop-color:#F78F1F"/>
		<stop  offset="0.1323" style="stop-color:#F9A72F"/>
		<stop  offset="0.2661" style="stop-color:#FBBC3E"/>
		<stop  offset="0.4101" style="stop-color:#FCCC4C"/>
		<stop  offset="0.5671" style="stop-color:#FDD756"/>
		<stop  offset="0.7468" style="stop-color:#FEDE5C"/>
		<stop  offset="1" style="stop-color:#FEE05E"/>
	</linearGradient>
	<path style="fill:url(#SVGID_28_);" d="M108.8,38.3c-1.6,1.1-31.5,16.8-31.5,16.8s26-21.6,27.6-22.6c1.6-1.1,3.8-0.6,4.9,1
		C110.8,35.1,110.4,37.2,108.8,38.3z"/>
</g>
<g>
	
		<linearGradient id="SVGID_29_" gradientUnits="userSpaceOnUse" x1="85.6741" y1="62.9926" x2="85.6741" y2="98.669" gradientTransform="matrix(0.7071 0.7071 -0.7071 0.7071 85.6741 -78.8356)">
		<stop  offset="0" style="stop-color:#F78E1E"/>
		<stop  offset="5.396068e-03" style="stop-color:#F78F1F"/>
		<stop  offset="0.1323" style="stop-color:#F9A72F"/>
		<stop  offset="0.2661" style="stop-color:#FBBC3E"/>
		<stop  offset="0.4101" style="stop-color:#FCCC4C"/>
		<stop  offset="0.5671" style="stop-color:#FDD756"/>
		<stop  offset="0.7468" style="stop-color:#FEDE5C"/>
		<stop  offset="1" style="stop-color:#FEE05E"/>
	</linearGradient>
	<path style="fill:url(#SVGID_29_);" d="M102.9,30.1c-1.4,1.4-27.6,22.6-27.6,22.6s21.3-26.2,22.6-27.6s3.6-1.4,4.9,0
		C104.3,26.5,104.3,28.7,102.9,30.1z"/>
</g>
<g>
	
		<linearGradient id="SVGID_30_" gradientUnits="userSpaceOnUse" x1="76.4713" y1="51.7789" x2="76.4713" y2="87.4553" gradientTransform="matrix(0.8315 0.5556 -0.5556 0.8315 58.8137 -65.8828)">
		<stop  offset="0" style="stop-color:#F78E1E"/>
		<stop  offset="5.396068e-03" style="stop-color:#F78F1F"/>
		<stop  offset="0.1323" style="stop-color:#F9A72F"/>
		<stop  offset="0.2661" style="stop-color:#FBBC3E"/>
		<stop  offset="0.4101" style="stop-color:#FCCC4C"/>
		<stop  offset="0.5671" style="stop-color:#FDD756"/>
		<stop  offset="0.7468" style="stop-color:#FEDE5C"/>
		<stop  offset="1" style="stop-color:#FEE05E"/>
	</linearGradient>
	<path style="fill:url(#SVGID_30_);" d="M95.5,23.1c-1.1,1.6-22.6,27.6-22.6,27.6s15.7-29.9,16.8-31.5c1.1-1.6,3.2-2,4.9-1
		C96.2,19.3,96.6,21.5,95.5,23.1z"/>
</g>
<g>
	
		<linearGradient id="SVGID_31_" gradientUnits="userSpaceOnUse" x1="69.6329" y1="38.9852" x2="69.6329" y2="74.6616" gradientTransform="matrix(0.9239 0.3827 -0.3827 0.9239 34.9964 -47.9386)">
		<stop  offset="0" style="stop-color:#F78E1E"/>
		<stop  offset="5.396068e-03" style="stop-color:#F78F1F"/>
		<stop  offset="0.1323" style="stop-color:#F9A72F"/>
		<stop  offset="0.2661" style="stop-color:#FBBC3E"/>
		<stop  offset="0.4101" style="stop-color:#FCCC4C"/>
		<stop  offset="0.5671" style="stop-color:#FDD756"/>
		<stop  offset="0.7468" style="stop-color:#FEDE5C"/>
		<stop  offset="1" style="stop-color:#FEE05E"/>
	</linearGradient>
	<path style="fill:url(#SVGID_31_);" d="M86.9,17.8c-0.7,1.8-16.8,31.5-16.8,31.5s9.6-32.4,10.4-34.1c0.7-1.8,2.8-2.6,4.6-1.9
		C86.8,13.9,87.7,16,86.9,17.8z"/>
</g>
<g>
	
		<linearGradient id="SVGID_32_" gradientUnits="userSpaceOnUse" x1="65.4219" y1="25.1034" x2="65.4219" y2="60.7798" gradientTransform="matrix(0.9808 0.1951 -0.1951 0.9808 15.1374 -25.6927)">
		<stop  offset="0" style="stop-color:#F78E1E"/>
		<stop  offset="5.396068e-03" style="stop-color:#F78F1F"/>
		<stop  offset="0.1323" style="stop-color:#F9A72F"/>
		<stop  offset="0.2661" style="stop-color:#FBBC3E"/>
		<stop  offset="0.4101" style="stop-color:#FCCC4C"/>
		<stop  offset="0.5671" style="stop-color:#FDD756"/>
		<stop  offset="0.7468" style="stop-color:#FEDE5C"/>
		<stop  offset="1" style="stop-color:#FEE05E"/>
	</linearGradient>
	<path style="fill:url(#SVGID_32_);" d="M77.5,14.2c-0.4,1.9-10.4,34.1-10.4,34.1s3.1-33.6,3.5-35.5s2.2-3.1,4.1-2.7
		C76.6,10.4,77.9,12.3,77.5,14.2z"/>
</g>
<g>
	<circle style="fill:#F15A26;" cx="64" cy="3.5" r="3.5"/>
</g>
<g>
	
		<ellipse transform="matrix(0.9808 -0.1951 0.1951 0.9808 9.334462e-02 10.2727)" style="fill:#F15A26;" cx="52.2" cy="4.7" rx="3.5" ry="3.5"/>
</g>
<g>
	
		<ellipse transform="matrix(0.9239 -0.3827 0.3827 0.9239 7.582852e-03 16.2487)" style="fill:#F15A26;" cx="40.8" cy="8.1" rx="3.5" ry="3.5"/>
</g>
<g>
	
		<ellipse transform="matrix(0.8315 -0.5556 0.5556 0.8315 -2.4878 19.1909)" style="fill:#F15A26;" cx="30.4" cy="13.7" rx="3.5" ry="3.5"/>
</g>
<g>
	
		<ellipse transform="matrix(0.7071 -0.7071 0.7071 0.7071 -8.7896 21.22)" style="fill:#F15A26;" cx="21.2" cy="21.2" rx="3.5" ry="3.5"/>
</g>
<g>
	
		<ellipse transform="matrix(0.5556 -0.8315 0.8315 0.5556 -19.1798 24.8932)" style="fill:#F15A26;" cx="13.7" cy="30.4" rx="3.5" ry="3.5"/>
</g>
<g>
	
		<ellipse transform="matrix(0.3827 -0.9239 0.9239 0.3827 -32.7348 32.7042)" style="fill:#F15A26;" cx="8.1" cy="40.8" rx="3.5" ry="3.5"/>
</g>
<g>
	
		<ellipse transform="matrix(0.1951 -0.9808 0.9808 0.1951 -47.4412 46.5868)" style="fill:#F15A26;" cx="4.7" cy="52.2" rx="3.5" ry="3.5"/>
</g>
<g>
	<circle style="fill:#F15A26;" cx="3.5" cy="64" r="3.5"/>
</g>
<g>
	
		<ellipse transform="matrix(0.9808 -0.1951 0.1951 0.9808 -14.6988 2.3661)" style="fill:#F15A26;" cx="4.7" cy="75.8" rx="3.5" ry="3.5"/>
</g>
<g>
	
		<ellipse transform="matrix(0.9239 -0.3827 0.3827 0.9239 -32.7348 9.7358)" style="fill:#F15A26;" cx="8.1" cy="87.2" rx="3.5" ry="3.5"/>
</g>
<g>
	
		<ellipse transform="matrix(0.8315 -0.5556 0.5556 0.8315 -51.9221 24.0597)" style="fill:#F15A26;" cx="13.7" cy="97.6" rx="3.5" ry="3.5"/>
</g>
<g>
	
		<ellipse transform="matrix(0.7071 -0.7071 0.7071 0.7071 -69.2896 46.28)" style="fill:#F15A26;" cx="21.2" cy="106.8" rx="3.5" ry="3.5"/>
</g>
<g>
	
		<ellipse transform="matrix(0.5556 -0.8315 0.8315 0.5556 -81.5349 76.0668)" style="fill:#F15A26;" cx="30.4" cy="114.3" rx="3.5" ry="3.5"/>
</g>
<g>
	
		<ellipse transform="matrix(0.3827 -0.9239 0.9239 0.3827 -85.5523 111.7513)" style="fill:#F15A26;" cx="40.8" cy="119.9" rx="3.5" ry="3.5"/>
</g>
<g>
	
		<ellipse transform="matrix(0.1951 -0.9808 0.9808 0.1951 -78.9537 150.4696)" style="fill:#F15A26;" cx="52.2" cy="123.3" rx="3.5" ry="3.5"/>
</g>
<g>
	<circle style="fill:#F15A26;" cx="64" cy="124.5" r="3.5"/>
</g>
<g>
	
		<ellipse transform="matrix(0.9808 -0.1951 0.1951 0.9808 -22.6054 17.1583)" style="fill:#F15A26;" cx="75.8" cy="123.3" rx="3.5" ry="3.5"/>
</g>
<g>
	
		<ellipse transform="matrix(0.9239 -0.3827 0.3827 0.9239 -39.2476 42.4782)" style="fill:#F15A26;" cx="87.2" cy="119.9" rx="3.5" ry="3.5"/>
</g>
<g>
	
		<ellipse transform="matrix(0.8315 -0.5556 0.5556 0.8315 -47.0533 73.494)" style="fill:#F15A26;" cx="97.6" cy="114.3" rx="3.5" ry="3.5"/>
</g>
<g>
	
		<ellipse transform="matrix(0.7071 -0.7071 0.7071 0.7071 -44.2297 106.78)" style="fill:#F15A26;" cx="106.8" cy="106.8" rx="3.5" ry="3.5"/>
</g>
<g>
	
		<ellipse transform="matrix(0.5556 -0.8315 0.8315 0.5556 -30.3614 138.4219)" style="fill:#F15A26;" cx="114.3" cy="97.6" rx="3.5" ry="3.5"/>
</g>
<g>
	
		<ellipse transform="matrix(0.3827 -0.9239 0.9239 0.3827 -6.5053 164.5689)" style="fill:#F15A26;" cx="119.9" cy="87.2" rx="3.5" ry="3.5"/>
</g>
<g>
	
		<ellipse transform="matrix(0.1951 -0.9808 0.9808 0.1951 24.9291 181.9821)" style="fill:#F15A26;" cx="123.3" cy="75.8" rx="3.5" ry="3.5"/>
</g>
<g>
	<circle style="fill:#F15A26;" cx="124.5" cy="64" r="3.5"/>
</g>
<g>
	
		<ellipse transform="matrix(0.9808 -0.1951 0.1951 0.9808 -7.8132 25.0649)" style="fill:#F15A26;" cx="123.3" cy="52.2" rx="3.5" ry="3.5"/>
</g>
<g>
	
		<ellipse transform="matrix(0.9239 -0.3827 0.3827 0.9239 -6.5053 48.9911)" style="fill:#F15A26;" cx="119.9" cy="40.8" rx="3.5" ry="3.5"/>
</g>
<g>
	
		<ellipse transform="matrix(0.8315 -0.5556 0.5556 0.8315 2.381 68.6252)" style="fill:#F15A26;" cx="114.3" cy="30.4" rx="3.5" ry="3.5"/>
</g>
<g>
	
		<ellipse transform="matrix(0.7071 -0.7071 0.7071 0.7071 16.2703 81.72)" style="fill:#F15A26;" cx="106.8" cy="21.2" rx="3.5" ry="3.5"/>
</g>
<g>
	
		<ellipse transform="matrix(0.5556 -0.8315 0.8315 0.5556 31.9938 87.2484)" style="fill:#F15A26;" cx="97.6" cy="13.7" rx="3.5" ry="3.5"/>
</g>
<g>
	
		<ellipse transform="matrix(0.3827 -0.9239 0.9239 0.3827 46.3123 85.5218)" style="fill:#F15A26;" cx="87.2" cy="8.1" rx="3.5" ry="3.5"/>
</g>
<g>
	
		<ellipse transform="matrix(0.1951 -0.9808 0.9808 0.1951 56.4416 78.0993)" style="fill:#F15A26;" cx="75.8" cy="4.7" rx="3.5" ry="3.5"/>
</g>
<circle style="fill:#FEE05D;" cx="64" cy="64" r="30"/>
<circle style="fill:none;stroke:#F79321;stroke-width:4;stroke-miterlimit:10;" cx="64" cy="64" r="25"/>
<circle style="fill:#F79321;stroke:#F79321;stroke-miterlimit:10;" cx="51" cy="61" r="4.5"/>
<path style="fill:none;stroke:#F79321;stroke-linejoin:round;stroke-miterlimit:10;" d="M72.4,69.4c-1,2.3-2.5,3.8-4.2,3.8
	c-1.7,0-3.2-1.5-4.2-3.8l0,0c-1,2.3-2.5,3.8-4.2,3.8c-1.8,0-3.3-1.7-4.4-4.2"/>
<circle style="fill:#F79321;stroke:#F79321;stroke-miterlimit:10;" cx="77" cy="61" r="4.5"/>
<path style="fill:none;stroke:#F79321;stroke-linejoin:round;stroke-miterlimit:10;" d="M69.4,73c-0.5,4.2-2.7,7.5-5.4,7.5
	c-2.7,0-5-3.3-5.4-7.5"/>
</svg>
